<?xml version="1.0" standalone="no"?><!DOCTYPE svg PUBLIC "-//W3C//DTD SVG 1.1//EN" "http://www.w3.org/Graphics/SVG/1.1/DTD/svg11.dtd"><svg t="1652630273799" class="icon" viewBox="0 0 1024 1024" version="1.1" xmlns="http://www.w3.org/2000/svg" p-id="3693" width="250" height="250" xmlns:xlink="http://www.w3.org/1999/xlink"><defs><style type="text/css">:not(pre) { -webkit-text-stroke: 0px !important; }
</style></defs><path d="M623.786667 627.958519l-94.814815-274.204445a25.220741 25.220741 0 0 0-9.481482-12.98963 39.158519 39.158519 0 0 0-40.58074 0 25.220741 25.220741 0 0 0-9.481482 12.98963l-93.677037 273.066667c-4.266667 12.515556-3.508148 21.238519 2.085926 26.453333a31.194074 31.194074 0 0 0 22.376296 7.774815 30.814815 30.814815 0 0 0 21.522963-6.637037 44.847407 44.847407 0 0 0 11.282963-17.445926l20.100741-52.148148h92.065185l21.712593 54.518518a43.045926 43.045926 0 0 0 10.429629 15.54963 28.444444 28.444444 0 0 0 21.048889 6.162963 32.142222 32.142222 0 0 0 22.376297-8.059259c5.688889-5.214815 6.637037-13.463704 3.034074-25.031111zM464.592593 533.617778l35.176296-112.82963 34.891852 112.82963zM718.696296 632.225185a29.677037 29.677037 0 0 1-7.111111 21.997037 30.340741 30.340741 0 0 1-22.85037 7.300741 28.444444 28.444444 0 0 1-22.471111-7.300741 30.814815 30.814815 0 0 1-6.637037-21.428148V364.373333q0-29.013333 29.013333-29.013333A33.564444 33.564444 0 0 1 711.111111 341.333333a27.117037 27.117037 0 0 1 7.774815 22.186667z" fill="#0097FF" p-id="3694"></path><path d="M555.804444 56.888889a410.074074 410.074074 0 0 0-409.41037 409.41037 35.460741 35.460741 0 0 0 0 4.930371c-28.444444 29.297778-88.746667 96.331852-88.746667 143.454814 0 52.148148 49.303704 72.248889 84.48 73.386667l40.106667 9.007408 7.585185 197.025185a73.765926 73.765926 0 0 0 74.145185 73.007407h150.281482a29.297778 29.297778 0 1 0 0-58.500741H263.964444a14.980741 14.980741 0 0 1-14.885925-14.885926l-9.481482-243.768888-87.04-18.962963-3.034074-0.663704h-3.318519a64.948148 64.948148 0 0 1-19.911111-4.551111c-9.481481-3.792593-9.481481-7.300741-9.481481-10.619259 0-16.971852 37.262222-68.171852 79.549629-109.700741a29.297778 29.297778 0 0 0 7.300741-29.771852 28.444444 28.444444 0 0 0 1.422222-9.007407 350.814815 350.814815 0 0 1 701.62963 0c0 16.308148 29.297778 29.297778 29.297778 29.297777s29.297778-12.98963 29.297778-29.297777A409.979259 409.979259 0 0 0 555.804444 56.888889z" fill="#0097FF" p-id="3695"></path><path d="M860.728889 291.271111s146.299259 247.751111-81.92 485.451852c0 0-11.282963 50.725926 47.407407 36.124444 0 0 163.555556-134.542222 136.912593-392.438518z" fill="#0097FF" p-id="3696"></path></svg>